# xmcd
#
# Track frame offsets: 
#        150
#        18940
#        37007
#        54375
#        67855
#        84310
#        104027
#        117210
#        132570
#        145790
#        161975
#        176725
#        196202
#        228760
#
# Disc length: 3056 seconds
#
# Revision: 0
# Processed by: cddbd v1.5.1PL2 Copyright (c) Steve Scherf et al.
# Submitted via: ExactAudioCopy v0.95b3
#
DISCID=bd0bee0e
DTITLE=John Hiatt - Y'all Caught Compilation
DYEAR=1900
DGENRE=Country
TTITLE0=the crush
TTITLE1=she said the same things to me
TTITLE2=love like blood
TTITLE3=slug line
TTITLE4=she loves the jerk
TTITLE5=my edgeof the razor
TTITLE6=pink bedroom
TTITLE7=it hasnt happened yet
TTITLE8=radio girl
TTITLE9=i look for love
TTITLE10=washable ink
TTITLE11=riding with the king
TTITLE12=when we ran
TTITLE13=none
EXTD=
EXTT0=
EXTT1=
EXTT2=
EXTT3=
EXTT4=
EXTT5=
EXTT6=
EXTT7=
EXTT8=
EXTT9=
EXTT10=
EXTT11=
EXTT12=
EXTT13=
PLAYORDER=
